STARTFONT 2.1
FONT -sun-timmons-medium-i-normal--17-170-75-75-p-89-adobe-fontspecific
SIZE 17 75 75
FONTBOUNDINGBOX 22 20 -4 -4

STARTPROPERTIES 28
FOUNDRY "sun"
FAMILY_NAME "timmons"
WEIGHT_NAME "medium"
SLANT "i"
SETWIDTH_NAME "normal"
ADD_STYLE_NAME ""
PIXEL_SIZE 18
POINT_SIZE 170
RESOLUTION_X 75
RESOLUTION_Y 75
SPACING "p"
AVERAGE_WIDTH 89
CHARSET_REGISTRY "adobe"
CHARSET_ENCODING "fontspecific"
COPYRIGHT "© 1999 Sun Microsystems, Inc."
RAW_PIXELSIZE 1000
RAW_POINTSIZE 964
RAW_ASCENT 924
RAW_DESCENT 196
RAW_AVERAGE_WIDTH 5015
FACE_NAME "TimmonsItalicnsB5"
_XMBDFED_INFO "Edited with xmbdfed 2.4."
WEIGHT 10
X_HEIGHT -1
QUAD_WIDTH 9
DEFAULT_CHAR 4
FONT_DESCENT 4
FONT_ASCENT 16
ENDPROPERTIES

CHARS 214

STARTCHAR char32
ENCODING 32
SWIDTH 20 0
DWIDTH 4 0
BBX 0 0 0 0
BITMAP
ENDCHAR

STARTCHAR char33
ENCODING 33
SWIDTH 25 0
DWIDTH 5 0
BBX 4 13 2 0
BITMAP
10
30
30
20
20
20
20
40
40
40
00
80
80
ENDCHAR

STARTCHAR char34
ENCODING 34
SWIDTH 30 0
DWIDTH 6 0
BBX 5 5 2 8
BITMAP
28
28
28
50
50
ENDCHAR

STARTCHAR char35
ENCODING 35
SWIDTH 45 0
DWIDTH 9 0
BBX 8 13 0 0
BITMAP
12
12
32
32
FF
26
24
24
FF
64
64
44
4C
ENDCHAR

STARTCHAR char36
ENCODING 36
SWIDTH 40 0
DWIDTH 8 0
BBX 9 16 0 -2
BITMAP
0100
0200
1F80
2280
2280
3480
1C00
0C00
0E00
0B00
8900
8900
D300
7C00
1000
1000
ENDCHAR

STARTCHAR char37
ENCODING 37
SWIDTH 9 0
DWIDTH 12 0
BBX 11 12 1 0
BITMAP
3880
4880
8900
8900
9AC0
93A0
E520
0B20
0A20
1220
1240
2180
ENDCHAR

STARTCHAR char38
ENCODING 38
SWIDTH 4 0
DWIDTH 11 0
BBX 11 12 0 0
BITMAP
0380
0480
0580
0700
0400
3DC0
44C0
8680
8680
C300
E700
79C0
ENDCHAR

STARTCHAR char39
ENCODING 39
SWIDTH 20 0
DWIDTH 4 0
BBX 3 4 3 9
BITMAP
40
40
80
80
ENDCHAR

STARTCHAR char40
ENCODING 40
SWIDTH 30 0
DWIDTH 6 0
BBX 6 16 2 -3
BITMAP
04
18
30
20
40
C0
C0
80
80
80
80
80
80
40
40
40
ENDCHAR

STARTCHAR char41
ENCODING 41
SWIDTH 30 0
DWIDTH 6 0
BBX 7 16 -2 -3
BITMAP
04
04
02
02
02
02
02
02
06
04
04
08
18
30
40
80
ENDCHAR

STARTCHAR char42
ENCODING 42
SWIDTH 35 0
DWIDTH 7 0
BBX 6 7 2 6
BITMAP
10
10
D4
38
38
D4
30
ENDCHAR

STARTCHAR char43
ENCODING 43
SWIDTH 4 0
DWIDTH 11 0
BBX 10 10 1 0
BITMAP
0800
0800
0800
0800
FFC0
0800
0800
0800
0800
0800
ENDCHAR

STARTCHAR char44
ENCODING 44
SWIDTH 20 0
DWIDTH 4 0
BBX 2 4 0 -2
BITMAP
40
40
40
80
ENDCHAR

STARTCHAR char45
ENCODING 45
SWIDTH 25 0
DWIDTH 5 0
BBX 4 1 1 4
BITMAP
F0
ENDCHAR

STARTCHAR char46
ENCODING 46
SWIDTH 20 0
DWIDTH 4 0
BBX 1 2 1 0
BITMAP
80
80
ENDCHAR

STARTCHAR char47
ENCODING 47
SWIDTH 30 0
DWIDTH 6 0
BBX 7 12 0 0
BITMAP
04
04
08
08
10
10
10
20
20
40
40
C0
ENDCHAR

STARTCHAR char48
ENCODING 48
SWIDTH 40 0
DWIDTH 8 0
BBX 7 12 1 0
BITMAP
1C
22
42
42
C2
C2
82
86
84
84
88
70
ENDCHAR

STARTCHAR char49
ENCODING 49
SWIDTH 40 0
DWIDTH 8 0
BBX 7 13 0 0
BITMAP
02
06
06
04
0C
0C
08
08
18
18
10
30
F0
ENDCHAR

STARTCHAR char50
ENCODING 50
SWIDTH 40 0
DWIDTH 8 0
BBX 8 12 -1 0
BITMAP
0E
11
01
01
01
02
02
04
08
12
22
7C
ENDCHAR

STARTCHAR char51
ENCODING 51
SWIDTH 40 0
DWIDTH 8 0
BBX 8 12 0 0
BITMAP
0E
13
03
06
08
0C
04
04
04
04
88
F0
ENDCHAR

STARTCHAR char52
ENCODING 52
SWIDTH 40 0
DWIDTH 8 0
BBX 9 13 0 0
BITMAP
0080
0100
0300
0700
0A00
1200
2600
4600
FF00
0C00
0C00
0800
0800
ENDCHAR

STARTCHAR char53
ENCODING 53
SWIDTH 40 0
DWIDTH 8 0
BBX 8 13 0 0
BITMAP
04
0F
10
10
3C
0C
06
02
02
02
04
88
F0
ENDCHAR

STARTCHAR char54
ENCODING 54
SWIDTH 40 0
DWIDTH 8 0
BBX 8 13 1 0
BITMAP
03
04
18
30
60
7C
C6
C2
82
86
84
8C
78
ENDCHAR

STARTCHAR char55
ENCODING 55
SWIDTH 40 0
DWIDTH 8 0
BBX 7 12 2 0
BITMAP
7E
84
04
08
08
10
10
20
60
40
80
80
ENDCHAR

STARTCHAR char56
ENCODING 56
SWIDTH 40 0
DWIDTH 8 0
BBX 8 12 1 0
BITMAP
3F
23
21
22
14
18
68
44
84
84
8C
70
ENDCHAR

STARTCHAR char57
ENCODING 57
SWIDTH 40 0
DWIDTH 8 0
BBX 8 12 0 0
BITMAP
1E
31
61
41
41
43
23
1E
06
0C
10
60
ENDCHAR

STARTCHAR char58
ENCODING 58
SWIDTH 25 0
DWIDTH 5 0
BBX 4 9 1 0
BITMAP
10
10
00
00
00
00
00
40
40
ENDCHAR

STARTCHAR char59
ENCODING 59
SWIDTH 25 0
DWIDTH 5 0
BBX 4 11 1 -2
BITMAP
10
10
00
00
00
00
00
40
40
40
80
ENDCHAR

STARTCHAR char60
ENCODING 60
SWIDTH 45 0
DWIDTH 9 0
BBX 9 9 0 0
BITMAP
0080
0700
1C00
7000
8000
6000
1C00
0700
0180
ENDCHAR

STARTCHAR char61
ENCODING 61
SWIDTH 4 0
DWIDTH 11 0
BBX 12 4 0 3
BITMAP
FFF0
0000
0000
FFF0
ENDCHAR

STARTCHAR char62
ENCODING 62
SWIDTH 45 0
DWIDTH 9 0
BBX 9 9 0 0
BITMAP
8000
6000
1C00
0700
0180
0700
1C00
7000
8000
ENDCHAR

STARTCHAR char63
ENCODING 63
SWIDTH 35 0
DWIDTH 7 0
BBX 6 12 2 0
BITMAP
7C
64
04
08
18
30
20
20
40
00
80
80
ENDCHAR

STARTCHAR char64
ENCODING 64
SWIDTH 44 0
DWIDTH 19 0
BBX 12 13 3 0
BITMAP
0F80
30C0
4020
4F50
9990
B090
B090
A190
B120
BF60
5D80
2060
1F80
ENDCHAR

STARTCHAR char65
ENCODING 65
SWIDTH 4 0
DWIDTH 11 0
BBX 12 12 -2 0
BITMAP
0020
0020
0060
00E0
0160
0260
0240
07C0
0840
1040
2040
61E0
ENDCHAR

STARTCHAR char66
ENCODING 66
SWIDTH 50 0
DWIDTH 10 0
BBX 11 12 -1 0
BITMAP
1FC0
0C20
0C20
0C60
18C0
1F00
1880
10C0
30C0
30C0
2180
FF00
ENDCHAR

STARTCHAR char67
ENCODING 67
SWIDTH 4 0
DWIDTH 11 0
BBX 10 12 2 0
BITMAP
1FC0
3040
6040
C000
C000
8000
8000
8000
8000
4100
6300
3C00
ENDCHAR

STARTCHAR char68
ENCODING 68
SWIDTH 9 0
DWIDTH 12 0
BBX 12 12 -1 0
BITMAP
0FC0
0C20
0C30
0810
1810
1810
1030
3030
3060
3040
2180
7E00
ENDCHAR

STARTCHAR char69
ENCODING 69
SWIDTH 50 0
DWIDTH 10 0
BBX 12 12 -1 0
BITMAP
0FF0
0C10
0C10
0C80
0880
1F80
1880
1080
3040
3040
30C0
3FC0
ENDCHAR

STARTCHAR char70
ENCODING 70
SWIDTH 45 0
DWIDTH 9 0
BBX 12 12 -1 0
BITMAP
1E30
0410
0C00
0C80
0C80
1F80
1880
1880
1000
3000
3000
7800
ENDCHAR

STARTCHAR char71
ENCODING 71
SWIDTH 9 0
DWIDTH 12 0
BBX 10 12 2 0
BITMAP
1FC0
2040
4040
C000
C000
8380
8380
8100
8300
8300
4300
3E00
ENDCHAR

STARTCHAR char72
ENCODING 72
SWIDTH 9 0
DWIDTH 12 0
BBX 15 12 -1 0
BITMAP
0F1E
0C18
0C10
0830
1830
1FF0
1860
3060
3060
3040
20C0
F3E0
ENDCHAR

STARTCHAR char73
ENCODING 73
SWIDTH 30 0
DWIDTH 6 0
BBX 8 12 0 0
BITMAP
0F
0C
08
18
18
10
30
30
30
20
60
F0
ENDCHAR

STARTCHAR char74
ENCODING 74
SWIDTH 35 0
DWIDTH 7 0
BBX 9 12 0 0
BITMAP
0780
0600
0600
0400
0C00
0C00
0C00
1800
1800
9800
B000
6000
ENDCHAR

STARTCHAR char75
ENCODING 75
SWIDTH 4 0
DWIDTH 11 0
BBX 14 12 -1 0
BITMAP
0F38
0C60
0C80
0900
1A00
1E00
1A00
1300
3100
3180
21C0
F1E0
ENDCHAR

STARTCHAR char76
ENCODING 76
SWIDTH 50 0
DWIDTH 10 0
BBX 11 12 -1 0
BITMAP
0E00
0C00
0C00
0C00
1800
1800
1800
1000
3020
3020
3040
FFC0
ENDCHAR

STARTCHAR char77
ENCODING 77
SWIDTH 19 0
DWIDTH 14 0
BBX 17 12 -1 0
BITMAP
0E0780
0E0E00
0E0C00
0E1C00
162C00
162C00
165800
269800
229800
231000
423000
F27800
ENDCHAR

STARTCHAR char78
ENCODING 78
SWIDTH 9 0
DWIDTH 12 0
BBX 15 12 -1 0
BITMAP
0C0E
0C08
0E10
0A10
1310
1310
11A0
21A0
20C0
20C0
4040
E040
ENDCHAR

STARTCHAR char79
ENCODING 79
SWIDTH 9 0
DWIDTH 12 0
BBX 10 12 1 0
BITMAP
0F80
3040
2040
6040
4040
C040
80C0
80C0
8080
8180
4300
3C00
ENDCHAR

STARTCHAR char80
ENCODING 80
SWIDTH 45 0
DWIDTH 9 0
BBX 11 12 -1 0
BITMAP
07C0
0420
0C20
0C20
0840
1F80
1800
1800
1000
3000
3000
F800
ENDCHAR

STARTCHAR char81
ENCODING 81
SWIDTH 9 0
DWIDTH 12 0
BBX 10 15 1 -3
BITMAP
0F80
3040
6040
6040
4040
C040
80C0
8080
8080
8100
4200
3C00
1040
3E80
4F00
ENDCHAR

STARTCHAR char82
ENCODING 82
SWIDTH 4 0
DWIDTH 11 0
BBX 12 12 -1 0
BITMAP
0FC0
0C20
0C20
0860
18C0
1F00
1B00
1300
3180
3180
30C0
F8E0
ENDCHAR

STARTCHAR char83
ENCODING 83
SWIDTH 45 0
DWIDTH 9 0
BBX 11 12 -1 0
BITMAP
0FA0
1040
1040
1840
0C00
0400
0200
0300
4100
4100
6100
9E00
ENDCHAR

STARTCHAR char84
ENCODING 84
SWIDTH 45 0
DWIDTH 9 0
BBX 11 12 1 0
BITMAP
7EC0
8C40
8C40
0C00
0800
1800
1800
1800
3000
3000
3000
7000
ENDCHAR

STARTCHAR char85
ENCODING 85
SWIDTH 9 0
DWIDTH 12 0
BBX 12 12 2 0
BITMAP
7870
6040
6040
6080
4080
4080
C100
8100
8100
8200
C400
7800
ENDCHAR

STARTCHAR char86
ENCODING 86
SWIDTH 4 0
DWIDTH 11 0
BBX 12 12 2 0
BITMAP
7870
6080
6100
6100
6200
6400
6800
7000
7000
6000
4000
4000
ENDCHAR

STARTCHAR char87
ENCODING 87
SWIDTH 24 0
DWIDTH 15 0
BBX 16 11 2 1
BITMAP
3FC2
2084
2188
2708
6710
6B20
7920
61C0
71C0
4100
4100
ENDCHAR

STARTCHAR char88
ENCODING 88
SWIDTH 50 0
DWIDTH 10 0
BBX 13 12 -1 0
BITMAP
0F38
0C20
0440
0680
0700
0600
0600
0B00
1300
1300
2100
E380
ENDCHAR

STARTCHAR char89
ENCODING 89
SWIDTH 50 0
DWIDTH 10 0
BBX 11 12 2 0
BITMAP
F8C0
3080
3100
1200
1C00
1800
1800
1800
1000
3000
3000
F800
ENDCHAR

STARTCHAR char90
ENCODING 90
SWIDTH 4 0
DWIDTH 11 0
BBX 13 12 -1 0
BITMAP
1FF8
2030
2060
00C0
0180
0300
0600
0C00
1800
3020
7020
7FC0
ENDCHAR

STARTCHAR char91
ENCODING 91
SWIDTH 30 0
DWIDTH 6 0
BBX 8 15 0 -3
BITMAP
0F
08
18
18
10
30
30
20
20
60
40
40
C0
C0
F0
ENDCHAR

STARTCHAR char92
ENCODING 92
SWIDTH 25 0
DWIDTH 5 0
BBX 5 13 0 0
BITMAP
80
80
40
40
40
60
20
20
30
10
10
18
08
ENDCHAR

STARTCHAR char93
ENCODING 93
SWIDTH 30 0
DWIDTH 6 0
BBX 8 15 -2 -3
BITMAP
07
01
02
02
02
06
04
04
0C
0C
08
08
18
10
F0
ENDCHAR

STARTCHAR char94
ENCODING 94
SWIDTH 0 0
DWIDTH 0 0
BBX 5 2 0 14
BITMAP
30
50
ENDCHAR

STARTCHAR char95
ENCODING 95
SWIDTH 4 0
DWIDTH 11 0
BBX 10 1 0 -2
BITMAP
FFC0
ENDCHAR

STARTCHAR char96
ENCODING 96
SWIDTH 0 0
DWIDTH 0 0
BBX 3 2 1 10
BITMAP
C0
40
ENDCHAR

STARTCHAR char97
ENCODING 97
SWIDTH 45 0
DWIDTH 9 0
BBX 8 8 1 0
BITMAP
3F
26
46
44
84
8C
9E
EC
ENDCHAR

STARTCHAR char98
ENCODING 98
SWIDTH 40 0
DWIDTH 8 0
BBX 8 12 0 0
BITMAP
18
10
10
10
3E
31
21
61
42
42
44
78
ENDCHAR

STARTCHAR char99
ENCODING 99
SWIDTH 35 0
DWIDTH 7 0
BBX 6 8 1 0
BITMAP
1C
24
40
80
80
80
88
70
ENDCHAR

STARTCHAR char100
ENCODING 100
SWIDTH 45 0
DWIDTH 9 0
BBX 8 12 1 0
BITMAP
03
01
03
02
3E
66
46
84
8C
9C
BA
CC
ENDCHAR

STARTCHAR char101
ENCODING 101
SWIDTH 35 0
DWIDTH 7 0
BBX 6 8 1 0
BITMAP
1C
24
4C
F8
80
80
88
70
ENDCHAR

STARTCHAR char102
ENCODING 102
SWIDTH 25 0
DWIDTH 5 0
BBX 10 15 -2 -3
BITMAP
01C0
0240
0200
0600
1F00
0400
0400
0C00
0800
0800
1800
1000
1000
A000
C000
ENDCHAR

STARTCHAR char103
ENCODING 103
SWIDTH 35 0
DWIDTH 7 0
BBX 8 11 -1 -3
BITMAP
1F
31
23
22
1C
20
38
4E
C3
82
7C
ENDCHAR

STARTCHAR char104
ENCODING 104
SWIDTH 45 0
DWIDTH 9 0
BBX 9 12 0 0
BITMAP
1800
1000
1000
3000
3700
2900
3100
6200
6200
4600
C580
4600
ENDCHAR

STARTCHAR char105
ENCODING 105
SWIDTH 20 0
DWIDTH 4 0
BBX 4 12 1 0
BITMAP
10
10
00
00
60
20
60
40
40
C0
E0
C0
ENDCHAR

STARTCHAR char106
ENCODING 106
SWIDTH 20 0
DWIDTH 4 0
BBX 7 15 -3 -3
BITMAP
02
02
00
00
04
04
04
04
08
08
08
18
10
90
E0
ENDCHAR

STARTCHAR char107
ENCODING 107
SWIDTH 45 0
DWIDTH 9 0
BBX 10 12 0 0
BITMAP
1000
1800
1000
1000
3380
2600
2800
7800
6C00
4400
C580
4200
ENDCHAR

STARTCHAR char108
ENCODING 108
SWIDTH 20 0
DWIDTH 4 0
BBX 5 12 1 0
BITMAP
30
10
30
20
20
20
60
40
40
C0
A0
C0
ENDCHAR

STARTCHAR char109
ENCODING 109
SWIDTH 14 0
DWIDTH 13 0
BBX 13 8 0 0
BITMAP
6730
3BD0
73B0
6320
6620
C660
C658
4460
ENDCHAR

STARTCHAR char110
ENCODING 110
SWIDTH 45 0
DWIDTH 9 0
BBX 9 8 0 0
BITMAP
2700
3900
3300
2200
6200
4600
C580
4600
ENDCHAR

STARTCHAR char111
ENCODING 111
SWIDTH 40 0
DWIDTH 8 0
BBX 7 8 1 0
BITMAP
3C
42
42
82
86
84
88
70
ENDCHAR

STARTCHAR char112
ENCODING 112
SWIDTH 40 0
DWIDTH 8 0
BBX 9 11 -2 -3
BITMAP
1F00
0C80
0880
1880
1080
1100
3200
3C00
2000
2000
E000
ENDCHAR

STARTCHAR char113
ENCODING 113
SWIDTH 40 0
DWIDTH 8 0
BBX 7 11 1 -3
BITMAP
3E
26
46
84
8C
9C
98
68
18
18
38
ENDCHAR

STARTCHAR char114
ENCODING 114
SWIDTH 30 0
DWIDTH 6 0
BBX 6 8 1 0
BITMAP
EC
34
70
60
C0
C0
80
80
ENDCHAR

STARTCHAR char115
ENCODING 115
SWIDTH 35 0
DWIDTH 7 0
BBX 7 8 0 0
BITMAP
1E
22
32
10
18
88
88
F0
ENDCHAR

STARTCHAR char116
ENCODING 116
SWIDTH 25 0
DWIDTH 5 0
BBX 5 10 1 0
BITMAP
10
20
F8
20
60
40
40
C0
B0
C0
ENDCHAR

STARTCHAR char117
ENCODING 117
SWIDTH 45 0
DWIDTH 9 0
BBX 8 8 1 0
BITMAP
62
A2
46
46
CC
94
BF
CC
ENDCHAR

STARTCHAR char118
ENCODING 118
SWIDTH 35 0
DWIDTH 7 0
BBX 6 8 1 0
BITMAP
C4
44
44
64
68
70
60
40
ENDCHAR

STARTCHAR char119
ENCODING 119
SWIDTH 50 0
DWIDTH 10 0
BBX 11 8 0 0
BITMAP
6260
2620
2E20
2E40
3280
3380
2200
2200
ENDCHAR

STARTCHAR char120
ENCODING 120
SWIDTH 40 0
DWIDTH 8 0
BBX 10 8 -1 0
BITMAP
31C0
0B00
0E00
0400
0C00
1600
2280
C300
ENDCHAR

STARTCHAR char121
ENCODING 121
SWIDTH 35 0
DWIDTH 7 0
BBX 9 11 -2 -3
BITMAP
3080
1880
0880
0900
0900
0A00
0C00
0800
1000
B000
C000
ENDCHAR

STARTCHAR char122
ENCODING 122
SWIDTH 35 0
DWIDTH 7 0
BBX 8 8 -1 0
BITMAP
3F
22
04
08
10
10
22
7C
ENDCHAR

STARTCHAR char123
ENCODING 123
SWIDTH 30 0
DWIDTH 6 0
BBX 4 15 1 -3
BITMAP
70
60
60
60
40
40
40
80
40
40
60
40
40
40
30
ENDCHAR

STARTCHAR char124
ENCODING 124
SWIDTH 25 0
DWIDTH 5 0
BBX 1 13 2 0
BITMAP
80
80
80
80
80
80
80
80
80
80
80
80
80
ENDCHAR

STARTCHAR char125
ENCODING 125
SWIDTH 30 0
DWIDTH 6 0
BBX 4 15 1 -3
BITMAP
C0
20
20
20
20
20
20
10
20
20
60
20
20
20
C0
ENDCHAR

STARTCHAR char126
ENCODING 126
SWIDTH 0 0
DWIDTH 0 0
BBX 7 2 -1 14
BITMAP
3A
4C
ENDCHAR

STARTCHAR char128
ENCODING 128
SWIDTH 45 0
DWIDTH 9 0
BBX 10 12 0 0
BITMAP
03C0
0C40
1840
1000
2000
7F00
FE00
4000
4000
4000
6300
3C00
ENDCHAR

STARTCHAR char130
ENCODING 130
SWIDTH 20 0
DWIDTH 4 0
BBX 2 4 0 -2
BITMAP
40
40
40
80
ENDCHAR

STARTCHAR char131
ENCODING 131
SWIDTH 0 0
DWIDTH 0 0
BBX 5 2 0 14
BITMAP
30
50
ENDCHAR

STARTCHAR char132
ENCODING 132
SWIDTH 35 0
DWIDTH 7 0
BBX 5 4 0 -2
BITMAP
48
48
48
90
ENDCHAR

STARTCHAR char133
ENCODING 133
SWIDTH 44 0
DWIDTH 19 0
BBX 12 2 3 0
BITMAP
8410
8410
ENDCHAR

STARTCHAR char134
ENCODING 134
SWIDTH 40 0
DWIDTH 8 0
BBX 7 15 2 -3
BITMAP
18
18
10
FE
DE
30
20
20
40
40
40
40
80
80
80
ENDCHAR

STARTCHAR char135
ENCODING 135
SWIDTH 39 0
DWIDTH 18 0
BBX 0 0 0 0
BITMAP
ENDCHAR

STARTCHAR char136
ENCODING 136
SWIDTH 0 0
DWIDTH 0 0
BBX 5 2 0 10
BITMAP
70
50
ENDCHAR

STARTCHAR char137
ENCODING 137
SWIDTH 39 0
DWIDTH 18 0
BBX 0 0 0 0
BITMAP
ENDCHAR

STARTCHAR char138
ENCODING 138
SWIDTH 39 0
DWIDTH 18 0
BBX 0 0 0 0
BITMAP
ENDCHAR

STARTCHAR char139
ENCODING 139
SWIDTH 30 0
DWIDTH 6 0
BBX 2 6 2 2
BITMAP
40
40
80
80
C0
40
ENDCHAR

STARTCHAR char140
ENCODING 140
SWIDTH 29 0
DWIDTH 16 0
BBX 16 12 1 0
BITMAP
0FFF
30E1
60C1
40C4
C0C4
C0F8
8188
8188
8180
8302
4304
3FFC
ENDCHAR

STARTCHAR char141
ENCODING 141
SWIDTH 39 0
DWIDTH 18 0
BBX 0 0 0 0
BITMAP
ENDCHAR

STARTCHAR char143
ENCODING 143
SWIDTH 39 0
DWIDTH 18 0
BBX 0 0 0 0
BITMAP
ENDCHAR

STARTCHAR char145
ENCODING 145
SWIDTH 20 0
DWIDTH 4 0
BBX 3 3 3 9
BITMAP
40
80
C0
ENDCHAR

STARTCHAR char146
ENCODING 146
SWIDTH 20 0
DWIDTH 4 0
BBX 2 3 3 9
BITMAP
40
40
80
ENDCHAR

STARTCHAR char147
ENCODING 147
SWIDTH 35 0
DWIDTH 7 0
BBX 5 3 3 9
BITMAP
90
90
90
ENDCHAR

STARTCHAR char148
ENCODING 148
SWIDTH 35 0
DWIDTH 7 0
BBX 5 4 3 8
BITMAP
48
48
90
A0
ENDCHAR

STARTCHAR char149
ENCODING 149
SWIDTH 30 0
DWIDTH 6 0
BBX 5 5 0 4
BITMAP
70
F8
F8
F8
70
ENDCHAR

STARTCHAR char150
ENCODING 150
SWIDTH 40 0
DWIDTH 8 0
BBX 8 1 0 4
BITMAP
7E
ENDCHAR

STARTCHAR char151
ENCODING 151
SWIDTH 4 0
DWIDTH 11 0
BBX 12 1 0 5
BITMAP
FFF0
ENDCHAR

STARTCHAR char152
ENCODING 152
SWIDTH 0 0
DWIDTH 0 0
BBX 7 2 -1 10
BITMAP
7C
88
ENDCHAR

STARTCHAR char153
ENCODING 153
SWIDTH 24 0
DWIDTH 15 0
BBX 15 7 -1 5
BITMAP
F90E
968C
118C
11D4
1154
11E4
31AE
ENDCHAR

STARTCHAR char154
ENCODING 154
SWIDTH 39 0
DWIDTH 18 0
BBX 0 0 0 0
BITMAP
ENDCHAR

STARTCHAR char155
ENCODING 155
SWIDTH 30 0
DWIDTH 6 0
BBX 2 6 2 2
BITMAP
80
80
40
40
C0
80
ENDCHAR

STARTCHAR char156
ENCODING 156
SWIDTH 9 0
DWIDTH 12 0
BBX 12 8 0 0
BITMAP
3EF0
6310
4330
C3E0
8200
8600
8E20
73C0
ENDCHAR

STARTCHAR char157
ENCODING 157
SWIDTH 39 0
DWIDTH 18 0
BBX 0 0 0 0
BITMAP
ENDCHAR

STARTCHAR char159
ENCODING 159
SWIDTH 50 0
DWIDTH 10 0
BBX 11 16 2 0
BITMAP
1100
1100
0000
0000
F0E0
2180
2300
1200
1400
1800
1800
1000
1000
2000
2000
F800
ENDCHAR

STARTCHAR char160
ENCODING 160
SWIDTH 20 0
DWIDTH 4 0
BBX 0 0 0 0
BITMAP
ENDCHAR

STARTCHAR char161
ENCODING 161
SWIDTH 25 0
DWIDTH 5 0
BBX 4 12 1 0
BITMAP
10
10
20
20
20
20
40
40
C0
C0
C0
80
ENDCHAR

STARTCHAR char162
ENCODING 162
SWIDTH 35 0
DWIDTH 7 0
BBX 6 13 1 -2
BITMAP
08
08
18
34
54
50
90
A0
A0
A8
70
40
40
ENDCHAR

STARTCHAR char163
ENCODING 163
SWIDTH 45 0
DWIDTH 9 0
BBX 11 12 -1 0
BITMAP
03E0
0620
0600
0400
0C00
1F80
0C00
0C00
0800
F880
B980
EF00
ENDCHAR

STARTCHAR char164
ENCODING 164
SWIDTH 0 0
DWIDTH 0 0
BBX 4 2 2 14
BITMAP
60
C0
ENDCHAR

STARTCHAR char165
ENCODING 165
SWIDTH 0 0
DWIDTH 0 0
BBX 6 2 0 14
BITMAP
88
70
ENDCHAR

STARTCHAR char166
ENCODING 166
SWIDTH 39 0
DWIDTH 18 0
BBX 0 0 0 0
BITMAP
ENDCHAR

STARTCHAR char167
ENCODING 167
SWIDTH 35 0
DWIDTH 7 0
BBX 8 16 0 -3
BITMAP
0E
11
10
10
18
3C
44
46
62
32
2C
10
10
90
B0
40
ENDCHAR

STARTCHAR char168
ENCODING 168
SWIDTH 0 0
DWIDTH 0 0
BBX 5 2 0 10
BITMAP
88
88
ENDCHAR

STARTCHAR char169
ENCODING 169
SWIDTH 14 0
DWIDTH 13 0
BBX 12 12 0 0
BITMAP
0F00
3080
4040
4720
9890
9010
9010
9010
8990
4620
2040
1F80
ENDCHAR

STARTCHAR char170
ENCODING 170
SWIDTH 0 0
DWIDTH 0 0
BBX 5 2 0 14
BITMAP
88
88
ENDCHAR

STARTCHAR char171
ENCODING 171
SWIDTH 40 0
DWIDTH 8 0
BBX 8 8 0 1
BITMAP
09
11
22
64
CC
44
44
24
ENDCHAR

STARTCHAR char172
ENCODING 172
SWIDTH 9 0
DWIDTH 12 0
BBX 12 5 -1 0
BITMAP
FFF0
0010
0010
0010
0010
ENDCHAR

STARTCHAR char173
ENCODING 173
SWIDTH 39 0
DWIDTH 18 0
BBX 0 0 0 0
BITMAP
ENDCHAR

STARTCHAR char174
ENCODING 174
SWIDTH 14 0
DWIDTH 13 0
BBX 12 12 0 0
BITMAP
0F00
3080
4040
5F20
8910
8910
8E10
8B10
8B10
5DA0
2040
1F80
ENDCHAR

STARTCHAR char175
ENCODING 175
SWIDTH 39 0
DWIDTH 18 0
BBX 0 0 0 0
BITMAP
ENDCHAR

STARTCHAR char176
ENCODING 176
SWIDTH 20 0
DWIDTH 4 0
BBX 6 6 2 6
BITMAP
30
C8
84
84
48
30
ENDCHAR

STARTCHAR char177
ENCODING 177
SWIDTH 45 0
DWIDTH 9 0
BBX 9 11 0 0
BITMAP
0800
0800
0800
0800
FF80
0800
0800
0800
0800
0000
FF80
ENDCHAR

STARTCHAR char178
ENCODING 178
SWIDTH 39 0
DWIDTH 18 0
BBX 0 0 0 0
BITMAP
ENDCHAR

STARTCHAR char179
ENCODING 179
SWIDTH 39 0
DWIDTH 18 0
BBX 0 0 0 0
BITMAP
ENDCHAR

STARTCHAR char180
ENCODING 180
SWIDTH 0 0
DWIDTH 0 0
BBX 3 2 2 10
BITMAP
40
80
ENDCHAR

STARTCHAR char181
ENCODING 181
SWIDTH 39 0
DWIDTH 18 0
BBX 0 0 0 0
BITMAP
ENDCHAR

STARTCHAR char182
ENCODING 182
SWIDTH 14 0
DWIDTH 13 0
BBX 8 15 2 -3
BITMAP
7F
E2
E2
E2
E2
62
22
22
22
22
22
22
22
22
22
ENDCHAR

STARTCHAR char183
ENCODING 183
SWIDTH 15 0
DWIDTH 3 0
BBX 1 2 2 4
BITMAP
80
80
ENDCHAR

STARTCHAR char184
ENCODING 184
SWIDTH 0 0
DWIDTH 0 0
BBX 3 4 -3 -4
BITMAP
20
20
20
C0
ENDCHAR

STARTCHAR char186
ENCODING 186
SWIDTH 0 0
DWIDTH 0 0
BBX 7 2 -1 14
BITMAP
3A
4C
ENDCHAR

STARTCHAR char187
ENCODING 187
SWIDTH 40 0
DWIDTH 8 0
BBX 8 8 0 1
BITMAP
24
24
22
32
32
66
4C
88
ENDCHAR

STARTCHAR char188
ENCODING 188
SWIDTH 39 0
DWIDTH 18 0
BBX 0 0 0 0
BITMAP
ENDCHAR

STARTCHAR char189
ENCODING 189
SWIDTH 39 0
DWIDTH 18 0
BBX 0 0 0 0
BITMAP
ENDCHAR

STARTCHAR char191
ENCODING 191
SWIDTH 35 0
DWIDTH 7 0
BBX 6 12 0 0
BITMAP
04
04
08
08
08
10
20
60
C0
88
88
70
ENDCHAR

STARTCHAR char192
ENCODING 192
SWIDTH 4 0
DWIDTH 11 0
BBX 12 16 -2 0
BITMAP
0180
0040
0000
0020
0020
0060
0060
00E0
0160
0260
0240
07C0
0840
1040
2040
61E0
ENDCHAR

STARTCHAR char193
ENCODING 193
SWIDTH 4 0
DWIDTH 11 0
BBX 12 16 -2 0
BITMAP
0070
0040
0000
0020
0020
0060
0060
00E0
0160
0260
0240
07C0
0840
1040
2040
61E0
ENDCHAR

STARTCHAR char194
ENCODING 194
SWIDTH 4 0
DWIDTH 11 0
BBX 12 16 -2 0
BITMAP
00C0
0160
0000
0020
0020
0060
0060
00E0
0160
0260
0240
07C0
0840
1040
2040
61E0
ENDCHAR

STARTCHAR char195
ENCODING 195
SWIDTH 4 0
DWIDTH 11 0
BBX 13 16 -2 0
BITMAP
01F0
0260
0000
0020
0020
0060
0060
00E0
0160
0260
0240
07C0
0840
1040
2040
61E0
ENDCHAR

STARTCHAR char196
ENCODING 196
SWIDTH 4 0
DWIDTH 11 0
BBX 14 16 -2 0
BITMAP
0044
0044
0000
0020
0020
0060
0060
00E0
0160
0260
0240
07C0
0840
1040
2040
61E0
ENDCHAR

STARTCHAR char197
ENCODING 197
SWIDTH 4 0
DWIDTH 11 0
BBX 13 16 -2 0
BITMAP
0038
0028
0038
0020
0020
0060
0060
00E0
0160
0260
0240
07C0
0840
1040
2040
61E0
ENDCHAR

STARTCHAR char198
ENCODING 198
SWIDTH 24 0
DWIDTH 15 0
BBX 18 12 -2 0
BITMAP
007FC0
007040
00B000
012200
016200
027C00
046400
0FC400
18C100
10C100
208300
E3FE00
ENDCHAR

STARTCHAR char199
ENCODING 199
SWIDTH 4 0
DWIDTH 11 0
BBX 10 16 2 -4
BITMAP
1FC0
2040
4040
C000
8000
8000
8000
8000
8000
4100
6300
3C00
2000
2000
2000
4000
ENDCHAR

STARTCHAR char200
ENCODING 200
SWIDTH 50 0
DWIDTH 10 0
BBX 12 16 -1 0
BITMAP
0300
0080
0000
0000
0FF0
0C10
0C10
0C80
0880
1F80
1880
1080
3040
3040
30C0
3FC0
ENDCHAR

STARTCHAR char201
ENCODING 201
SWIDTH 50 0
DWIDTH 10 0
BBX 12 16 -1 0
BITMAP
00C0
0180
0000
0000
0FF0
0C10
0C10
0C80
0880
1F80
1880
1080
3040
3040
30C0
3FC0
ENDCHAR

STARTCHAR char202
ENCODING 202
SWIDTH 50 0
DWIDTH 10 0
BBX 12 16 -1 0
BITMAP
0180
02C0
0000
0000
0FF0
0C10
0C10
0C80
0880
1F80
1880
1080
3040
3040
30C0
3FC0
ENDCHAR

STARTCHAR char203
ENCODING 203
SWIDTH 50 0
DWIDTH 10 0
BBX 12 16 -1 0
BITMAP
0240
0240
0000
0000
0FF0
0C10
0C10
0C80
0C80
1F00
1880
1080
3040
3040
3080
FF80
ENDCHAR

STARTCHAR char204
ENCODING 204
SWIDTH 30 0
DWIDTH 6 0
BBX 8 16 0 0
BITMAP
1C
04
00
00
0F
0C
08
18
18
10
30
30
30
20
60
F0
ENDCHAR

STARTCHAR char205
ENCODING 205
SWIDTH 30 0
DWIDTH 6 0
BBX 8 16 0 0
BITMAP
07
04
00
00
0F
0C
08
18
18
10
30
30
30
20
60
F0
ENDCHAR

STARTCHAR char206
ENCODING 206
SWIDTH 30 0
DWIDTH 6 0
BBX 8 16 0 0
BITMAP
0C
16
00
00
0F
0C
08
18
18
10
30
30
30
20
60
F0
ENDCHAR

STARTCHAR char207
ENCODING 207
SWIDTH 30 0
DWIDTH 6 0
BBX 8 16 0 0
BITMAP
11
11
00
00
06
04
08
08
08
10
10
30
20
20
60
E0
ENDCHAR

STARTCHAR char208
ENCODING 208
SWIDTH 39 0
DWIDTH 18 0
BBX 0 0 0 0
BITMAP
ENDCHAR

STARTCHAR char209
ENCODING 209
SWIDTH 9 0
DWIDTH 12 0
BBX 15 16 -1 0
BITMAP
01F0
06C0
0000
0000
0C0E
0C08
0E10
0A10
1310
1310
11A0
21A0
20C0
20C0
4040
E040
ENDCHAR

STARTCHAR char210
ENCODING 210
SWIDTH 9 0
DWIDTH 12 0
BBX 10 16 1 0
BITMAP
0600
0100
0000
0000
0F80
3040
2040
6040
4040
C040
80C0
80C0
8080
8180
4300
3C00
ENDCHAR

STARTCHAR char211
ENCODING 211
SWIDTH 9 0
DWIDTH 12 0
BBX 10 16 1 0
BITMAP
0180
0200
0000
0000
0F80
3040
2040
6040
4040
C040
80C0
80C0
8080
8180
4300
3C00
ENDCHAR

STARTCHAR char212
ENCODING 212
SWIDTH 9 0
DWIDTH 12 0
BBX 10 16 1 0
BITMAP
0300
0580
0000
0000
0F80
3040
2040
6040
4040
C040
80C0
80C0
8080
8180
4300
3C00
ENDCHAR

STARTCHAR char213
ENCODING 213
SWIDTH 9 0
DWIDTH 12 0
BBX 10 16 1 0
BITMAP
07C0
0980
0000
0000
0F80
3040
2040
6040
4040
C040
80C0
80C0
8080
8180
4300
3C00
ENDCHAR

STARTCHAR char214
ENCODING 214
SWIDTH 9 0
DWIDTH 12 0
BBX 11 16 1 0
BITMAP
0440
0440
0000
0000
1F80
30C0
2060
6060
4060
C040
80C0
8080
8080
8100
4200
3C00
ENDCHAR

STARTCHAR char215
ENCODING 215
SWIDTH 39 0
DWIDTH 18 0
BBX 0 0 0 0
BITMAP
ENDCHAR

STARTCHAR char216
ENCODING 216
SWIDTH 9 0
DWIDTH 12 0
BBX 11 14 1 -1
BITMAP
0040
0FC0
30C0
2140
6140
4240
C440
88C0
88C0
9080
E180
4300
7C00
8000
ENDCHAR

STARTCHAR char217
ENCODING 217
SWIDTH 9 0
DWIDTH 12 0
BBX 12 16 2 0
BITMAP
0C00
0200
0000
0000
7870
6040
6040
6080
4080
4080
C100
8100
8100
8200
C400
7800
ENDCHAR

STARTCHAR char218
ENCODING 218
SWIDTH 9 0
DWIDTH 12 0
BBX 12 16 2 0
BITMAP
0300
0600
0000
0000
7870
6040
6040
6080
4080
4080
C100
8100
8100
8200
C400
7800
ENDCHAR

STARTCHAR char219
ENCODING 219
SWIDTH 9 0
DWIDTH 12 0
BBX 12 16 2 0
BITMAP
0600
0B00
0000
0000
7870
6040
6040
6080
4080
4080
C100
8100
8100
8200
C400
7800
ENDCHAR

STARTCHAR char220
ENCODING 220
SWIDTH 9 0
DWIDTH 12 0
BBX 12 16 2 0
BITMAP
0880
0880
0000
0000
7870
6040
6040
6080
4080
4080
C100
8100
8100
8200
C400
7800
ENDCHAR

STARTCHAR char221
ENCODING 221
SWIDTH 39 0
DWIDTH 18 0
BBX 0 0 0 0
BITMAP
ENDCHAR

STARTCHAR char222
ENCODING 222
SWIDTH 39 0
DWIDTH 18 0
BBX 0 0 0 0
BITMAP
ENDCHAR

STARTCHAR char223
ENCODING 223
SWIDTH 45 0
DWIDTH 9 0
BBX 12 15 -4 -3
BITMAP
00F0
0190
0310
0320
0240
0260
0620
0420
0420
0C20
0960
09C0
1800
B000
E000
ENDCHAR

STARTCHAR char224
ENCODING 224
SWIDTH 45 0
DWIDTH 9 0
BBX 8 13 1 0
BITMAP
18
0C
04
00
00
1E
26
46
44
84
8C
9E
EC
ENDCHAR

STARTCHAR char225
ENCODING 225
SWIDTH 45 0
DWIDTH 9 0
BBX 8 12 1 0
BITMAP
06
04
00
00
1E
26
46
44
84
8C
9E
EC
ENDCHAR

STARTCHAR char226
ENCODING 226
SWIDTH 45 0
DWIDTH 9 0
BBX 8 12 1 0
BITMAP
0E
12
00
00
1E
26
46
44
84
8C
9E
EC
ENDCHAR

STARTCHAR char227
ENCODING 227
SWIDTH 45 0
DWIDTH 9 0
BBX 8 12 1 0
BITMAP
1F
26
00
00
1E
26
46
44
8C
8C
9E
EC
ENDCHAR

STARTCHAR char228
ENCODING 228
SWIDTH 45 0
DWIDTH 9 0
BBX 7 12 1 0
BITMAP
12
12
00
00
3E
64
44
84
88
88
9E
E8
ENDCHAR

STARTCHAR char229
ENCODING 229
SWIDTH 45 0
DWIDTH 9 0
BBX 7 12 1 0
BITMAP
0E
0E
00
00
1A
26
46
44
8C
8C
9A
EC
ENDCHAR

STARTCHAR char230
ENCODING 230
SWIDTH 9 0
DWIDTH 12 0
BBX 12 8 0 0
BITMAP
1FF0
2310
4230
43C0
8600
8600
DE60
6380
ENDCHAR

STARTCHAR char231
ENCODING 231
SWIDTH 35 0
DWIDTH 7 0
BBX 8 12 0 -4
BITMAP
0F
13
20
60
40
40
62
3C
20
30
20
C0
ENDCHAR

STARTCHAR char232
ENCODING 232
SWIDTH 35 0
DWIDTH 7 0
BBX 6 13 1 0
BITMAP
18
08
08
00
00
1C
24
4C
F8
80
80
88
70
ENDCHAR

STARTCHAR char233
ENCODING 233
SWIDTH 35 0
DWIDTH 7 0
BBX 7 13 1 0
BITMAP
04
0C
08
00
00
1C
24
4C
F8
80
80
88
70
ENDCHAR

STARTCHAR char234
ENCODING 234
SWIDTH 35 0
DWIDTH 7 0
BBX 7 13 1 0
BITMAP
08
1C
24
00
00
1C
24
4C
F8
80
80
88
70
ENDCHAR

STARTCHAR char235
ENCODING 235
SWIDTH 35 0
DWIDTH 7 0
BBX 6 12 1 0
BITMAP
24
24
00
00
18
64
48
F0
80
80
88
70
ENDCHAR

STARTCHAR char236
ENCODING 236
SWIDTH 20 0
DWIDTH 4 0
BBX 4 12 1 0
BITMAP
30
10
00
00
60
60
60
40
40
C0
A0
C0
ENDCHAR

STARTCHAR char237
ENCODING 237
SWIDTH 20 0
DWIDTH 4 0
BBX 6 12 1 0
BITMAP
18
10
00
00
60
20
60
40
40
C0
A0
C0
ENDCHAR

STARTCHAR char238
ENCODING 238
SWIDTH 20 0
DWIDTH 4 0
BBX 6 12 1 0
BITMAP
38
28
00
00
60
20
60
40
40
C0
A0
C0
ENDCHAR

STARTCHAR char239
ENCODING 239
SWIDTH 20 0
DWIDTH 4 0
BBX 5 12 1 0
BITMAP
48
48
00
00
60
20
40
40
40
80
E0
80
ENDCHAR

STARTCHAR char241
ENCODING 241
SWIDTH 45 0
DWIDTH 9 0
BBX 10 12 0 0
BITMAP
0E80
1700
0000
0000
3700
2900
3300
2200
6200
4600
C580
4600
ENDCHAR

STARTCHAR char242
ENCODING 242
SWIDTH 40 0
DWIDTH 8 0
BBX 7 13 1 0
BITMAP
18
0C
04
00
00
3C
42
42
82
86
84
88
70
ENDCHAR

STARTCHAR char243
ENCODING 243
SWIDTH 40 0
DWIDTH 8 0
BBX 7 12 1 0
BITMAP
06
04
00
00
3C
42
42
82
86
84
88
70
ENDCHAR

STARTCHAR char244
ENCODING 244
SWIDTH 40 0
DWIDTH 8 0
BBX 7 12 1 0
BITMAP
0E
12
00
00
3C
42
42
82
86
84
88
70
ENDCHAR

STARTCHAR char245
ENCODING 245
SWIDTH 40 0
DWIDTH 8 0
BBX 8 12 1 0
BITMAP
1F
22
00
00
3C
42
42
82
86
84
88
70
ENDCHAR

STARTCHAR char246
ENCODING 246
SWIDTH 40 0
DWIDTH 8 0
BBX 8 12 1 0
BITMAP
13
13
00
00
3C
42
42
82
86
84
8C
70
ENDCHAR

STARTCHAR char247
ENCODING 247
SWIDTH 45 0
DWIDTH 9 0
BBX 9 7 0 1
BITMAP
1000
1000
0000
FF80
0000
1000
1000
ENDCHAR

STARTCHAR char248
ENCODING 248
SWIDTH 40 0
DWIDTH 8 0
BBX 7 10 1 -1
BITMAP
04
3C
6A
4A
D2
A6
A4
AC
70
80
ENDCHAR

STARTCHAR char249
ENCODING 249
SWIDTH 45 0
DWIDTH 9 0
BBX 8 12 1 0
BITMAP
0C
04
00
00
62
A2
46
44
CC
94
BF
CC
ENDCHAR

STARTCHAR char250
ENCODING 250
SWIDTH 45 0
DWIDTH 9 0
BBX 8 12 1 0
BITMAP
06
04
00
00
62
A2
46
44
CC
94
BF
CC
ENDCHAR

STARTCHAR char251
ENCODING 251
SWIDTH 45 0
DWIDTH 9 0
BBX 8 12 1 0
BITMAP
0E
0A
00
00
62
A2
46
44
CC
94
BF
CC
ENDCHAR

STARTCHAR char252
ENCODING 252
SWIDTH 45 0
DWIDTH 9 0
BBX 7 12 1 0
BITMAP
12
12
00
00
62
A2
44
44
CC
94
BE
C8
ENDCHAR

STARTCHAR char255
ENCODING 255
SWIDTH 35 0
DWIDTH 7 0
BBX 10 15 -2 -3
BITMAP
0440
0440
0000
0000
3980
1880
0880
0900
0900
0A00
0C00
0800
0800
B000
C000
ENDCHAR
ENDFONT
